<svg id="Calque_1" data-name="Calque 1" xmlns="http://www.w3.org/2000/svg" viewBox="0 0 2859.5 512.08"><defs><style>.cls-1{fill:#0065fc;}.cls-2{fill:#f2f2f2;}</style></defs><path class="cls-1" d="M1411.65,17.8l-65.3,132.4-146.1,21.3c-26.2,3.8-36.7,36.1-17.7,54.6l105.7,103-25,145.5c-4.5,26.3,23.2,46,46.4,33.7l130.7-68.7,130.7,68.7c23.2,12.2,50.9-7.4,46.4-33.7l-25-145.5,105.7-103c19-18.5,8.5-50.8-17.7-54.6l-146.1-21.3-65.3-132.4c-11.7-23.6-45.6-23.9-57.4,0Z" transform="translate(-20.85 0.03)"/><path class="cls-1" d="M1987.65,17.8l-65.3,132.4-146.1,21.3c-26.2,3.8-36.7,36.1-17.7,54.6l105.7,103-25,145.5c-4.5,26.3,23.2,46,46.4,33.7l130.7-68.7,130.7,68.7c23.2,12.2,50.9-7.4,46.4-33.7l-25-145.5,105.7-103c19-18.5,8.5-50.8-17.7-54.6l-146.1-21.3-65.3-132.4c-11.7-23.6-45.6-23.9-57.4,0Z" transform="translate(-20.85 0.03)"/><path class="cls-1" d="M835.65,17.8l-65.3,132.4-146.1,21.3c-26.2,3.8-36.7,36.1-17.7,54.6l105.7,103-25,145.5c-4.5,26.3,23.2,46,46.4,33.7l130.7-68.7,130.7,68.7c23.2,12.2,50.9-7.4,46.4-33.7l-25-145.5,105.7-103c19-18.5,8.5-50.8-17.7-54.6l-146.1-21.3L893.05,17.8c-11.7-23.6-45.6-23.9-57.4,0Z" transform="translate(-20.85 0.03)"/><path class="cls-1" d="M259.65,17.8l-65.3,132.4L48.25,171.5c-26.2,3.8-36.7,36.1-17.7,54.6l105.7,103-25,145.5c-4.5,26.3,23.2,46,46.4,33.7l130.7-68.7,130.7,68.7c23.2,12.2,50.9-7.4,46.4-33.7l-25-145.5,105.7-103c19-18.5,8.5-50.8-17.7-54.6l-146.1-21.3L317.05,17.8c-11.7-23.6-45.6-23.9-57.4,0Z" transform="translate(-20.85 0.03)"/><path class="cls-2" d="M2584.15,17.78l-65.3,132.4-146.1,21.3c-26.2,3.8-36.7,36.1-17.7,54.6l105.7,103-25,145.5c-4.5,26.3,23.2,46,46.4,33.7l130.7-68.7,130.7,68.7c23.2,12.2,50.9-7.4,46.4-33.7l-25-145.5,105.7-103c19-18.5,8.5-50.8-17.7-54.6l-146.1-21.3-65.3-132.4c-11.7-23.6-45.6-23.9-57.4,0Z" transform="translate(-20.85 0.03)"/></svg>