<?xml version="1.0" encoding="utf-8"?>
<!-- Generator: Adobe Illustrator 25.2.0, SVG Export Plug-In . SVG Version: 6.00 Build 0)  -->
<svg version="1.1" id="Calque_1" focusable="false" xmlns="http://www.w3.org/2000/svg" xmlns:xlink="http://www.w3.org/1999/xlink"
	 x="0px" y="0px" viewBox="0 0 384 512" style="enable-background:new 0 0 384 512;" xml:space="preserve">
<style type="text/css">
	.st0{fill:#0065FC;}
</style>
<path class="st0" d="M120,72c0-39.8,32.2-72,72-72s72,32.2,72,72c0,39.8-32.2,72-72,72S120,111.8,120,72z M374.6,73.4
	c-12.5-12.5-32.8-12.5-45.3,0L242.7,160H141.3L54.6,73.4c-12.5-12.5-32.8-12.5-45.3,0c-12.5,12.5-12.5,32.8,0,45.3l94.6,94.6V480
	c0,17.7,14.3,32,32,32h16c17.7,0,32-14.3,32-32V368h16v112c0,17.7,14.3,32,32,32h16c17.7,0,32-14.3,32-32V213.3l94.6-94.6
	C387.1,106.1,387.1,85.9,374.6,73.4z"/>
</svg>
